<svg width="562" height="768" viewBox="0 0 562 768" fill="none" xmlns="http://www.w3.org/2000/svg">
<g clip-path="url(#clip0_23_753)">
<path d="M281.407 754.984C132.559 754.984 11.8988 588.889 11.8988 383.988C11.8988 179.088 132.559 12.9929 281.407 12.9929C430.256 12.9929 550.916 179.088 550.916 383.988C550.916 588.889 430.256 754.984 281.407 754.984Z" fill="#1D245D"/>
<path d="M419.248 279.56C409.655 280.831 399.233 281.825 388.282 282.618C392.707 511.929 288.153 600.626 288.153 600.626C178.657 479.566 184.151 314.125 186.427 281.435C167.48 280.403 155.762 279.56 155.762 279.56C143.428 535.774 287.499 649.926 287.499 649.926C441.314 516.962 419.248 279.56 419.248 279.56Z" fill="#D7B46A"/>
<path d="M421.843 173.427C421.843 173.427 423.704 176.586 425.816 176.586C425.816 176.586 426.382 174.648 426.797 174.648C426.797 174.648 423.389 173.352 421.843 173.427Z" fill="white"/>
<path d="M462.974 502.364L462.006 503.899C462.006 503.899 468.82 512.493 495.99 508.932L490.395 505.358C490.395 505.358 468.493 506.742 462.974 502.364" fill="white"/>
<path d="M493.476 492.796L492.018 494.255L473.197 494.583L475.057 484.038C483.984 483.874 486.662 480.477 486.662 480.477C487.391 474.714 478.791 469.53 478.791 469.53C476.767 466.85 478.226 459.64 478.226 459.64L486.335 459.715C487.555 459.388 490.471 457.362 490.471 457.362L484.713 454.128C481.231 457.199 478.628 456.72 478.628 456.72L480.174 443.018C482.035 443.823 490.635 443.42 490.635 443.42C494.696 443.018 498.744 438.312 498.744 438.312L490.635 435.556C489.994 437.318 487.567 439.18 485.832 439.746C484.927 440.048 483.971 440.161 483.028 440.237C482.337 440.287 480.904 440.438 480.388 439.834C479.936 439.318 481.268 427.83 481.721 427.767C483.091 427.604 482.928 426.635 482.928 426.635C481.872 425.905 477.496 425.578 477.496 425.578C474.328 425.741 474.089 429.39 474.089 429.39L470.028 465.151C470.028 466.686 473.109 470.738 473.109 470.738C470.028 474.639 467.677 482.339 467.677 482.339L465.087 496.369C465.087 496.369 471.009 497.665 472.631 497.829C474.253 497.98 489.83 497.741 489.83 497.741L489.667 498.559C490.308 499.767 495.023 501.314 495.023 501.314L498.103 496.772H500.127L500.693 495.476C496.645 492.393 493.476 492.796 493.476 492.796ZM477.811 474.223C478.2 473.783 478.603 473.519 478.955 473.582C479.848 473.745 481.306 474.878 480.904 476.174C480.501 477.47 477.823 478.854 477.17 478.854C475.51 478.854 476.566 475.633 477.811 474.223Z" fill="white"/>
<path d="M494.934 458.253L500.202 461.914L504.426 455.585L498.919 452.263L494.934 458.253Z" fill="white"/>
<path d="M490.15 412.528C487.308 410.829 482.04 408.149 478.306 410.414C474.572 412.692 475.716 417.398 475.716 417.398C475.716 417.398 471.982 414.151 469.945 410.011C467.921 405.884 469.631 401.09 469.631 401.09L472.623 396.145L471.09 394.937C469.769 396.976 468.449 399.014 467.129 401.052C464.439 405.205 462.955 409.319 465.231 414.013C467.029 417.687 470.448 420.594 474.333 421.777C478.067 422.909 486.743 422.607 486.743 422.607C489.76 422.318 492.011 420.682 492.903 419.335C494.047 417.637 492.991 414.227 490.15 412.528ZM485.85 417.637C485.121 418.367 482.279 419.008 482.279 419.008C482.279 419.008 482.204 417.712 482.204 416.341C482.204 414.957 483.499 412.365 485.523 413.497C487.56 414.642 486.579 416.907 485.85 417.637" fill="white"/>
<path d="M464.189 368.097L468.25 370.374L466.138 374.501L471.406 377.257L473.845 372.148L469.545 369.229L471.494 365.089L466.955 362.585L464.189 368.097Z" fill="white"/>
<path d="M464.834 388.606L470.429 391.035L473.761 384.882L467.751 381.875L464.834 388.606Z" fill="white"/>
<path d="M483.092 391.529L482.929 377.499H489.505C492.019 377.335 494.446 374.416 494.446 374.416L488.36 372.075C485.532 375.473 482.929 374.504 482.929 374.504L482.124 345.878C482.124 341.914 486.336 341.335 486.336 341.335L503.536 337.447C500.782 335.346 496.155 335.585 496.155 335.585L490.963 327.884C488.524 325.292 481.307 323.103 481.307 323.103C480.414 325.531 481.068 333.068 481.068 333.068L485.368 337.686C485.368 337.686 482.2 338.265 478.466 339.888C474.732 341.499 475.31 345.236 475.31 345.236L476.115 394.372L490.561 394.045C492.748 393.554 494.534 391.453 494.534 391.453L488.524 389.1C486.5 391.931 483.092 391.529 483.092 391.529ZM488.122 330.149C490.8 331.37 492.497 336.315 492.497 336.315L489.417 336.969L487.883 334.528C486.902 331.445 488.122 330.149 488.122 330.149Z" fill="white"/>
<path d="M468.003 305.179L467.601 306.563C467.601 306.563 470.027 308.337 476.603 307.859C483.178 307.368 499.56 299.907 499.56 299.907L492.507 297.717C492.507 297.717 476.2 306.311 468.003 305.179Z" fill="white"/>
<path d="M495.667 293.099L489.582 292.697L489.255 291.564C489.255 291.564 488.035 291.564 487.633 292.131C487.633 292.131 473.514 299.102 467.919 299.177L462.814 282.077C462.814 282.077 462.248 278.025 464.6 275.911C464.6 275.911 464.675 275.672 463.217 274.942C461.758 274.212 456.729 267.392 456.641 261.567C456.591 257.653 461.469 255.678 464.713 254.784C464.713 254.784 474.494 252.809 476.192 251.261C477.901 249.726 477.813 248.506 477.813 248.506L484.955 249.638C484.955 249.638 483.006 253.048 480.328 253.853C477.663 254.671 466.624 257.918 466.624 257.918C466.624 257.918 463.619 258.912 463.745 262.12C463.745 262.12 465.895 269.343 467.755 270.878C469.629 272.426 472.219 267.242 469.377 266.663C469.377 266.663 468.899 265.933 469.478 265.53C469.478 265.53 475.789 262.863 478.555 268.777C481.145 274.363 479.926 277.773 477.663 279.069C476.204 279.9 471.816 278.83 470.76 278.176C469.704 277.534 468.975 278.83 469.377 279.887C469.792 280.944 473.036 293.339 473.036 293.339C473.036 293.339 473.036 294.962 475.299 293.993C477.575 293.024 489.82 287.664 489.82 287.664L491.04 285.399C491.04 285.399 495.428 285.072 498.257 286.04C498.257 286.04 498.835 287.5 498.584 287.5C498.345 287.5 496.484 286.368 495.667 293.099Z" fill="white"/>
<path d="M465.813 241.777C462.569 239.914 458.596 238.618 457.05 238.857C457.05 238.857 454.045 237.486 453.316 234.315C452.586 231.157 446.501 218.674 446.501 218.674C446.501 218.674 444.477 215.83 446.338 214.132L464.116 204.078C464.116 204.078 461.676 202.455 456.409 204.078C456.409 204.078 454.699 203.512 453.643 202.367C449.519 197.938 443.471 198.655 437.99 198.151C438.09 198.164 438.844 203.26 439.008 203.776C439.599 205.626 440.743 207.312 442.692 207.891C445.697 208.784 446.589 209.099 445.533 209.916C444.477 210.722 437.826 214.207 438.958 217.944L446.753 236.026C446.753 236.026 448.852 240.317 452.26 241.047C452.26 241.047 451.618 251.591 453.731 254.095C453.731 254.095 458.672 253.529 461.513 251.994C464.354 250.446 467.762 247.049 468.001 246.155C468.252 245.262 469.057 243.639 465.813 241.777ZM448.287 202.53L452.75 205.701L449.996 207.4C447.809 207.324 446.338 203.751 446.426 202.694C446.501 201.637 448.287 202.53 448.287 202.53V202.53ZM458.835 247.288C458.03 247.288 458.03 242.267 458.03 242.267C460.708 240.971 461.915 243.639 461.915 243.639C461.915 243.639 459.652 247.288 458.835 247.288" fill="white"/>
<path d="M461.915 198.159L466.781 199.367L466.957 203.192L472.061 204.4L472.225 199.618L467.598 198.473L467.284 193.943L462.167 193.05L461.915 198.159Z" fill="white"/>
<path d="M503.941 330.725L508.077 332.751L506.531 337.206L511.157 340.2L513.27 334.777L509.774 332.663L511.007 327.555L505.889 324.962L503.941 330.725Z" fill="white"/>
<path d="M412.678 173.507C413.193 174.791 414.488 175.986 415.255 177.131C416.588 179.107 418.549 182.139 421.152 182.441C421.366 182.467 421.579 182.391 421.768 182.316C423.101 181.8 424.433 181.271 425.653 180.529C427.451 179.421 429.915 176.804 430.041 174.564C430.041 174.564 438.226 173.998 442.45 169.946C442.45 169.946 443.091 170.186 443.016 171.154L442.94 172.136L449.34 169.619C449.34 169.619 448.535 166.046 448.447 165.24C448.372 164.423 448.284 163.856 449.83 162.812L449.428 161.667C449.428 161.667 442.211 162.56 442.211 166.537C442.211 166.537 435.875 171.809 432.304 171.243C432.304 171.243 437.585 157.779 438.641 149.751C438.641 149.751 439.118 146.92 437.333 147.234C437.333 147.234 430.77 151.45 429.877 153.639C429.877 153.639 428.897 157.137 429.877 160.295C429.877 160.295 431.99 159.968 431.826 160.623L428.331 171.557C428.331 171.557 424.358 172.866 419.492 168.965C419.492 168.965 412.816 173.419 412.678 173.507Z" fill="white"/>
<path d="M404.239 150.32C404.239 150.32 403.183 151.943 403.749 153.566L411.053 164.262L420.458 157.694C420.458 157.694 429.058 151.855 428.907 143.915L421.514 146.835C421.514 146.835 420.948 155.265 416.007 157.782L410.085 149.829C410.085 149.829 409.67 147.967 410.563 147.162C410.563 147.162 410.89 146.029 409.356 146.432L404.239 150.32Z" fill="white"/>
<path d="M396.127 145.132L395.888 146.189C395.888 146.189 400.993 146.189 406.022 142.942C411.051 139.696 425.334 125.1 425.334 125.1C425.334 125.1 418.846 125.918 417.136 126.811C417.136 126.811 401.722 143.672 396.127 145.132Z" fill="white"/>
<path d="M399.372 129.24L405.621 126.157C405.621 126.157 404.892 132.398 399.297 135.644L393.048 140.678C393.048 140.678 382.739 144.163 376.578 138.237C376.578 138.237 373.812 134.839 374.466 126.157H376.251C376.251 126.157 375.446 131.832 379.985 134.273C379.985 134.273 385.819 137.104 392.394 136.701C398.97 136.299 399.372 129.24 399.372 129.24Z" fill="white"/>
<path d="M382.742 101.754L382.818 102.723C382.818 102.723 378.681 103.868 373.904 106.863C369.114 109.858 370.17 111.732 370.17 112.777C370.17 114.777 373.854 116.627 375.438 117.244C377.537 118.049 379.31 118.162 381.359 117.244C388.262 114.161 388.991 109.858 388.991 109.858V99.7283L382.742 101.754ZM381.686 112.777C379.826 113.507 375.438 109.618 377.223 107.593C379.008 105.567 382.579 105.164 382.579 105.164C382.579 105.164 383.56 112.047 381.686 112.777Z" fill="white"/>
<path d="M391.092 91.4582L391.67 96.4913L396.536 96.0761L396.938 99.4861L402.621 98.5172V94.1258L397.428 94.692L397.026 90.4893L391.092 91.4582Z" fill="white"/>
<path d="M411.422 181.354C411.422 181.354 411.887 183.556 413.32 182.399C414.754 181.228 412.943 180.083 412.943 180.083C412.943 180.083 410.089 178.611 408.606 179.442C407.122 180.272 407.7 181.807 407.7 181.807C407.7 181.807 407.776 182.248 406.946 181.644L406.129 181.052L404.746 181.103L409.561 185.104L411.485 185.205L409.901 183.669C409.901 183.669 409.121 181.971 409.423 181.09C409.737 180.209 410.806 180.26 411.422 181.354Z" fill="white"/>
<path d="M198.699 655.29L207.198 660.109C209.122 661.204 210.455 662.261 211.197 663.28C212.202 664.664 212.73 666.426 212.806 668.552C212.869 670.679 212.504 673.019 211.712 675.599C210.92 678.166 209.562 681.123 207.664 684.482C205.991 687.427 204.319 689.83 202.635 691.692C200.573 693.97 198.561 695.618 196.575 696.612C195.078 697.38 193.444 697.72 191.684 697.619C190.376 697.543 188.855 697.015 187.132 696.033L178.382 691.076L198.699 655.29ZM199.919 663.985L186.454 687.678L189.936 689.654C191.231 690.396 192.237 690.812 192.941 690.912C193.859 691.038 194.764 690.9 195.657 690.484C196.562 690.069 197.618 689.151 198.838 687.716C200.07 686.294 201.465 684.206 203.037 681.437C204.608 678.669 205.652 676.454 206.18 674.793C206.708 673.132 206.922 671.736 206.821 670.578C206.733 669.433 206.331 668.464 205.627 667.671C205.111 667.08 203.904 666.25 202.006 665.167L199.919 663.985Z" fill="white"/>
<path d="M236.528 703.091L238.854 696.749L251.451 701.342L245.97 716.353C244.172 717.448 241.909 718.152 239.155 718.48C236.402 718.807 233.837 718.53 231.448 717.662C228.418 716.554 226.08 714.768 224.433 712.289C222.786 709.823 221.956 706.84 221.943 703.342C221.943 699.857 222.597 696.308 223.917 692.697C225.351 688.771 227.262 685.512 229.638 682.92C232.014 680.341 234.717 678.68 237.747 677.937C240.061 677.359 242.6 677.585 245.366 678.592C248.962 679.9 251.414 681.914 252.721 684.606C254.029 687.312 254.331 690.495 253.652 694.169L247.328 693.465C247.592 691.464 247.353 689.715 246.624 688.243C245.894 686.758 244.675 685.714 242.99 685.097C240.438 684.153 238.024 684.468 235.748 686.028C233.473 687.589 231.574 690.432 230.053 694.585C228.418 699.052 227.966 702.688 228.67 705.481C229.374 708.275 230.971 710.125 233.447 711.018C234.68 711.471 236.012 711.609 237.471 711.433C238.929 711.257 240.274 710.88 241.481 710.313L243.229 705.532L236.528 703.091Z" fill="white"/>
<path d="M326.767 675.546C336.825 675.873 338.774 689.815 338.774 689.815C339.101 698.573 332.928 700.523 332.928 700.523L325.472 703.115L329.684 717.057L323.964 719.297L312.17 680.416L326.767 675.546ZM319.978 685.486L322.819 696.484L325.95 695.251C328.213 694.37 329.659 693.577 330.325 692.873C330.979 692.168 331.407 691.3 331.62 690.268C331.834 689.236 331.784 688.154 331.495 687.009C331.13 685.6 330.527 684.555 329.684 683.876C328.842 683.196 327.924 682.92 326.943 683.058C326.214 683.146 324.819 683.599 322.744 684.404L319.978 685.486Z" fill="white"/>
<path d="M368.338 702.441L345.594 666.793C345.594 666.793 359.085 659.218 360.593 659.105C362.089 658.992 363.699 659.495 365.421 660.64C367.131 661.773 368.677 663.358 370.035 665.384C371.77 667.964 372.713 670.43 372.852 672.77C373.002 675.111 372.223 677.162 370.551 678.923C372.122 679.137 374.147 679.213 375.492 679.829C376.825 680.446 378.937 681.729 381.816 683.667L389.07 688.524L383.652 692.161L375.354 686.901C372.386 685.014 370.463 683.78 369.558 683.365C368.665 682.963 367.885 682.799 367.232 682.862C366.59 682.925 365.735 683.302 364.692 684.007L363.774 684.623L373.329 699.673L368.338 702.441ZM359.525 679.578L362.869 677.325C365.044 675.866 366.301 674.809 366.653 674.167C367.005 673.525 367.106 672.758 366.955 671.864C366.792 670.971 366.364 670.002 365.673 668.97C364.893 667.825 364.063 667.02 363.183 666.58C362.303 666.139 361.436 666.076 360.568 666.378C360.153 666.554 359.022 667.259 357.186 668.492L353.653 670.87L359.525 679.578Z" fill="white"/>
<path d="M301.78 722.247L293.445 722.549L290.163 713.263H275.139L272.046 722.549L264.138 722.247L280.042 683.001H286.203L301.78 722.247ZM287.724 706.38L282.557 691.205L277.477 706.38H287.724Z" fill="white"/>
<path d="M342.424 692.616L346.561 699.424L355.198 694.806L351.188 687.873L342.424 692.616Z" fill="white"/>
<path d="M301.055 704.167L302.262 711.226L314.319 709.892L312.609 702.343L301.055 704.167Z" fill="white"/>
<path d="M252.376 709.151L264.534 711.831L266.244 704.533L254.325 702.344L252.376 709.151Z" fill="white"/>
<path d="M206.628 695.05L216.598 700.033L219.64 692.723L209.909 687.991L206.628 695.05Z" fill="white"/>
<path d="M309.354 286.979C338.485 286.979 364.385 286.212 386.375 284.702L388.311 284.551C388.298 283.896 388.298 283.267 388.286 282.613C363.693 284.375 336.373 285.029 309.354 285.029C262.03 285.029 215.625 283.016 186.431 281.443C186.38 282.072 186.343 282.764 186.292 283.494L188.241 283.481C218.504 285.104 263.464 286.979 309.354 286.979Z" fill="#34B9C7"/>
<path d="M388.327 286.018L388.314 284.546C388.302 283.904 388.302 283.262 388.289 282.608C363.697 284.382 336.377 285.037 309.358 285.037C262.022 285.037 215.628 283.023 186.434 281.438C186.384 282.067 186.334 282.772 186.296 283.501L186.284 283.715C183.97 321.137 180.978 482.123 288.148 600.629C288.148 600.629 391.646 512.788 388.327 286.018Z" fill="#C90C0F"/>
<path d="M302.295 363.173L285.799 310.69L268.99 363.173H212.991L258.642 395.448L242.159 446.9L285.824 414.663L327.805 444.346L312.328 395.096L355.578 363.173H302.295ZM286.503 339.844L293.997 363.173H279.01L286.503 339.844ZM242.398 372.032L266.11 372.17L261.773 385.697L242.398 372.032ZM259.899 422.653L266.789 401.199L278.029 409.567L259.899 422.653ZM269.92 391.447L276.093 372.22L296.939 372.334L302.848 390.717L286.73 403.288L269.92 391.447ZM313.107 422.653L294.047 408.661L305.802 399.915L313.107 422.653ZM309.348 385.634L305.186 372.384L326.17 372.497L309.348 385.634Z" fill="#007732"/>
<path d="M159.895 92.6738L163.792 97.5434C163.792 97.5434 179.37 103.86 185.933 109.459C185.933 109.459 188.611 111.888 188.611 109.699C188.611 109.699 187.316 107.182 183.255 103.382C183.255 103.382 168.419 93.8944 159.895 92.6738" fill="white"/>
<path d="M150.243 162.803L153.977 168.164L159.899 165.006L156.165 159.406L150.243 162.803Z" fill="white"/>
<path d="M53.541 349.287L57.9163 352.294L55.1629 356.019L60.2674 359.756L63.5992 355.213L59.2239 352.043L61.8893 348.721L56.7848 344.908L53.541 349.287Z" fill="white"/>
<path d="M98.5652 192.157L102.815 197.756L108.296 194.107L104.047 188.634L98.5652 192.157Z" fill="white"/>
<path d="M112.032 185.914L117.224 191.513C117.224 191.513 128.829 190.129 129.722 197.754C130.614 205.367 124.278 211.457 122.744 212.099C121.197 212.753 117.715 216.075 108.7 203.593L107.078 204.398C107.078 204.398 110.9 210.564 113.327 212.589C115.766 214.615 123.071 221.184 129.143 215.836C133.556 211.96 136.234 206.613 135.932 200.673C135.744 197.037 133.682 195.099 130.929 193.036C127.031 190.116 122.367 188.594 117.954 186.643L112.032 185.914Z" fill="white"/>
<path d="M177.336 110.349C174.985 108.813 161.193 103.617 161.193 103.617L161.846 102.648C161.356 101.427 157.458 98.508 157.458 98.508C154.868 101.1 150.003 100.219 150.003 100.219C151.461 103.138 155.271 105.479 155.271 105.479L158.439 105.24L175.224 112.538L169.553 119.018L168.497 119.433C165.731 116.678 160.702 115.621 160.702 115.621L161.846 120.075C164.524 120.327 167.039 121.786 167.039 121.786C165.983 123.485 162.902 124.378 162.902 124.378L158.024 120.729L157.861 123.485L161.356 126.48C161.758 127.612 160.866 129.89 160.866 129.89L157.132 134.747C156.239 136.206 153.812 135.162 153.812 135.162L149.11 132.482L148.381 133.866C151.097 135.766 152.907 138.232 151.776 141.592C150.745 144.65 147.979 146.826 144.81 147.242C144.785 147.242 138.549 148.047 133.281 149.343C128.013 150.639 128.177 155.509 128.177 155.509C128.667 160.051 130.93 161.184 130.93 161.184C133.696 154.779 143.666 153.81 143.666 153.81L134.098 167.827C129.71 163.864 124.757 164.556 124.757 164.556C121.752 164.77 120.382 166.292 121.362 168.884C122.33 171.476 126.794 177.076 131.747 178.372C136.688 179.668 137.832 176.019 137.908 175.126C137.996 174.232 138.562 174.559 138.562 174.559C139.995 175.465 140.485 177.667 140.686 179.228C140.963 181.279 141.227 183.544 140.624 185.569C139.655 188.828 136.185 190.98 133.281 192.402C133.281 192.88 134.337 193.773 134.337 193.773C137.103 193.459 144.559 188.753 144.559 188.753C146.91 186.891 147.803 184.613 146.671 180.071C145.54 175.541 141.152 171.074 141.152 171.074L158.276 145.291C158.276 145.291 158.515 142.133 158.276 141.479C158.024 140.837 157.458 139.453 157.458 139.453C162.249 140.585 162.902 139.377 162.902 139.377C164.273 138.811 167.844 132.645 167.844 132.645C168.246 131.261 167.932 128.921 167.932 128.921L168.573 128.669C174.821 126.568 182.855 114.073 182.855 114.073L177.336 110.349ZM128.981 173.188C128.981 173.188 126.882 172.936 126.794 171.401C126.718 169.853 129.145 168.721 132.64 170.105C132.64 170.105 132.715 173.427 128.981 173.188" fill="white"/>
<path d="M121.732 246.402C119.355 242.174 115.181 239.38 110.668 237.883C106.255 236.411 101.112 235.316 96.5359 236.675C93.6442 237.531 92.7389 240.022 94.3608 242.275C95.9953 244.514 101.766 248.742 106.883 248.692C112 248.642 112.139 244.816 111.975 243.936C111.824 243.055 112.453 243.218 112.453 243.218C114.075 243.709 115.131 245.71 115.734 247.157C116.539 249.069 117.394 251.183 117.344 253.297C117.268 256.695 113.408 260.243 110.982 262.37C111.108 262.835 112.038 263.917 112.038 263.917C114.603 262.873 121.983 255.323 121.983 255.323C123.756 252.907 124.02 250.479 121.732 246.402ZM102.86 244.414C102.86 244.414 100.76 244.728 100.27 243.269C99.7922 241.796 101.842 240.06 105.563 240.475C105.563 240.475 106.519 243.659 102.86 244.414" fill="white"/>
<path d="M112.924 269.749C112.924 269.749 114.471 268.05 112.434 267.723C110.41 267.396 110.737 269.421 110.737 269.421C110.737 269.421 111.541 272.429 113.327 272.995C115.112 273.561 116.005 272.177 116.005 272.177C116.005 272.177 116.332 271.863 116.407 272.831L116.495 273.8L117.551 274.782L117.463 268.78L116.168 267.32L116.005 269.421C116.005 269.421 115.112 271.045 114.144 271.372C113.163 271.699 112.434 270.881 112.924 269.749Z" fill="white"/>
<path d="M96.5122 413.957C96.5122 413.957 97.8323 412.069 95.7704 412.006C93.7211 411.943 94.2994 413.906 94.2994 413.906C94.2994 413.906 95.4812 416.788 97.3168 417.127C99.165 417.467 99.8691 415.982 99.8691 415.982C99.8691 415.982 100.158 415.618 100.359 416.574L100.561 417.53L101.73 418.361L100.9 412.421L99.4291 411.138L99.5296 413.252C99.5296 413.252 98.8507 414.976 97.9203 415.416C97.0025 415.857 96.1727 415.139 96.5122 413.957Z" fill="white"/>
<path d="M83.7195 280.532C83.7195 280.532 84.7756 279.966 83.795 278.909C82.8269 277.852 80.5512 279.475 80.5512 279.475C80.5512 279.475 75.937 282.721 75.1198 284.584C74.3152 286.446 73.6614 288.233 74.466 290.913C74.9438 292.461 76.1759 295.178 78.3636 297.066C81.5319 299.822 85.0145 300.476 89.3144 298.45C89.3144 298.45 90.2951 297.959 89.7167 300.564L86.1586 318.155C86.1586 318.155 85.9952 318.885 84.6122 318.96L70.4176 317.098C70.4176 317.098 63.3518 315.072 59.2153 317.828L65.3005 322.043C65.3005 322.043 67.8151 320.42 69.1226 320.42C70.4176 320.42 82.4245 322.37 82.4245 322.37C82.4245 322.37 89.679 323.993 92.8347 320.86L97.0215 301.772L96.6191 279.475L89.7167 274.932L90.2951 289.202L84.9391 294.31C84.9391 294.31 81.8588 295.933 80.8781 294.235C79.91 292.536 80.5512 286.698 81.2804 284.672C82.0222 282.646 83.7195 280.532 83.7195 280.532Z" fill="white"/>
<path d="M73.1733 332.585C73.1733 332.585 78.2778 327.804 84.6899 328.773L83.4703 338.185C83.4703 338.185 82.6657 340.525 80.2266 341.016C80.2266 341.016 82.0999 342.073 86.6386 342.639C89.304 342.979 90.3224 341.431 90.7122 340.11L92.6484 327.565L84.1241 326.105C84.1241 326.105 71.5514 323.098 65.6296 329.339C65.6296 329.339 72.2806 331.692 73.1733 332.585" fill="white"/>
<path d="M55.002 391.61L61.5775 395.587C61.5775 395.587 80.1474 394.127 84.5352 394.769C88.9105 395.423 89.5643 395.989 89.5643 395.989L89.3129 394.039C89.3129 394.039 83.718 391.371 82.0207 391.12C80.3108 390.881 55.002 391.61 55.002 391.61Z" fill="white"/>
<path d="M53.6228 405.23C53.6228 405.23 56.1373 405.469 56.9546 403.607C57.7592 401.744 58.0861 400.448 58.0861 400.448L64.4102 401.984L64.0833 404.261C64.0833 404.261 71.9538 404.261 76.3417 408.313L80.805 406.199L88.5875 406.362C88.5875 406.362 90.5363 408.313 90.6117 411.798L90.8632 419.096L82.5777 419.008C82.5777 419.008 80.717 414.151 77.0709 411.874L68.7981 417.964C68.7981 417.964 67.0882 419.587 69.1124 419.738C69.5273 419.776 68.4209 421.915 68.27 422.154C67.5031 423.324 66.5853 425.136 65.1897 425.602C60.6258 427.175 55.1692 425.262 55.1692 425.262C55.1692 425.262 56.6277 420.556 72.771 410.414C72.771 410.414 74.3929 409.37 72.2807 408.804C72.2807 408.804 65.7932 406.853 62.5494 406.929L61.7322 408.149C61.7322 408.149 56.5397 408.954 53.6228 405.23Z" fill="white"/>
<path d="M79.8257 409.934L81.7745 408.802C81.7745 408.802 83.5598 410.828 83.1575 414.313C83.1575 414.313 80.0646 411.23 79.8257 409.934Z" fill="white"/>
<path d="M60.7617 433.284L69.0346 436.128C69.0346 436.128 72.6806 430.365 78.9293 430.528L79.3442 441.224L77.4708 442.935C77.4708 442.935 76.1759 444.067 79.4951 443.992H84.0464C84.0464 443.992 86.5609 442.847 86.5609 441.073V428.339H71.1468C71.1468 428.339 65.4639 429.069 60.7617 433.284Z" fill="white"/>
<path d="M87.2888 465.552C87.2134 461.979 85.2646 461.01 84.1205 460.28C82.9889 459.55 83.4793 458.657 83.4793 458.657C85.428 456.392 86.635 447.144 86.635 447.144L77.633 447.307C77.633 447.307 69.9259 450.717 69.2847 451.12C67.8891 451.988 68.7818 454.366 69.4481 455.474C70.4917 457.185 72.3524 458.254 74.0246 459.261C75.5333 460.18 77.0923 461.01 78.6891 461.74C79.5817 462.142 79.984 464.747 79.984 464.747V472.284C79.984 476.097 76.9917 476.009 76.9917 476.009C76.9917 476.009 60.5969 476.663 59.2139 476.663C57.8435 476.663 55.1655 478.286 55.1655 478.286L61.9799 482.011L64.2556 479.985L81.7694 479.494C86.7985 479.494 87.4522 474.222 87.4522 474.222L87.2888 465.552ZM77.5575 456.795C77.5575 457.122 74.955 457.852 74.7915 455.738C74.6281 453.636 77.1426 452.177 78.0353 451.925C78.9279 451.686 78.9279 452.504 78.9279 452.504C78.9279 452.504 77.5575 456.468 77.5575 456.795Z" fill="white"/>
<path d="M67.9822 487.04L73.5016 487.933C73.5016 487.933 75.1235 487.933 75.1235 489.959C75.1235 491.796 78.0278 504.203 86.4263 507.663C87.8722 508.267 90.2233 508.267 91.7446 508.091C94.5986 507.751 97.8172 506.078 99.1876 503.41C100.281 501.284 100.294 498.629 100.307 496.288C100.319 492.362 99.9546 488.424 99.5397 484.523L100.759 483.881L107.159 494.502C107.159 498.062 107.624 501.951 106.254 505.323C103.286 512.596 91.9458 512.722 85.8354 510.469C85.8354 510.469 80.5549 509.173 76.0161 503.662C76.0161 503.662 75.1235 508.28 79.021 512.659C79.021 512.659 72.6089 513.628 68.636 506.09L67.9822 487.04Z" fill="white"/>
<path d="M84.1267 497.663L90.2119 500.67L93.2168 494.995L87.0436 492.063L84.1267 497.663Z" fill="white"/>
<path d="M72.0376 260.424L77.7205 264.803C77.7205 264.803 97.3465 265.935 103.193 268.049L106.273 269.672L107.078 268.213C107.078 268.213 103.193 264.148 99.6221 263.343C96.0515 262.538 79.0154 260.424 72.0376 260.424Z" fill="white"/>
<path d="M80.8804 347.26C74.5563 346.291 72.683 349.046 72.683 349.046L67.415 355.049L73.0099 358.773C73.0099 358.773 73.5002 357.238 74.066 357.641C74.6318 358.043 78.8562 362.095 83.7973 362.019C88.6881 361.931 89.3796 359.327 89.3921 359.264C90.8883 353.4 86.6764 348.153 80.8804 347.26ZM81.4085 358.245C81.0313 358.534 80.0003 359 79.4974 358.698C79.4723 358.672 75.361 356.093 75.361 356.093L80.8804 351.072C81.4085 350.582 82.4143 354.306 82.452 354.621C82.5777 355.854 82.4771 357.427 81.4085 358.245" fill="white"/>
<path d="M242.141 152.634C242.405 148.935 245.435 145.94 249.207 145.94C253.155 145.94 256.349 149.136 256.349 153.075C256.349 157.013 253.155 160.209 249.207 160.209C246.152 160.209 243.575 158.284 242.556 155.591C240.054 155.302 237.477 155.264 235.754 155.289C234.535 157.441 232.234 158.913 229.581 158.913C228.399 158.913 227.306 158.599 226.312 158.095C224.137 159.14 222.138 160.385 220.277 161.744C220.378 162.248 220.441 162.764 220.441 163.292C220.441 167.835 216.757 171.509 212.218 171.509C211.627 171.509 211.049 171.433 210.483 171.32C210.496 171.32 210.496 171.32 210.508 171.32C209.113 173.107 207.956 174.78 207.051 176.24C208.522 177.825 209.44 179.927 209.44 182.267C209.44 186.835 205.97 190.559 201.519 191.063C201.293 192.459 201.117 193.894 201.003 195.366C204.348 196.8 206.686 200.122 206.686 203.998C206.686 207.546 204.7 210.591 201.783 212.189C202.06 213.888 202.374 215.612 202.751 217.361C202.99 217.348 203.216 217.323 203.455 217.323C209.528 217.323 214.456 222.243 214.456 228.321C214.456 234.386 209.528 239.306 203.455 239.306C197.383 239.306 192.467 234.386 192.467 228.321C192.467 223.501 195.572 219.412 199.897 217.927C199.545 216.329 199.268 214.756 199.004 213.209C198.451 213.322 197.885 213.385 197.295 213.385C192.102 213.385 187.89 209.182 187.89 203.998C187.89 198.801 192.102 194.598 197.295 194.598C197.584 194.598 197.848 194.661 198.124 194.687C198.237 193.403 198.388 192.157 198.59 190.924C194.617 190.043 191.637 186.508 191.637 182.267C191.637 177.347 195.622 173.371 200.538 173.371C202.047 173.371 203.443 173.786 204.687 174.441C205.504 173.132 206.498 171.672 207.667 170.125C205.454 168.652 203.996 166.148 203.996 163.292C203.996 158.762 207.68 155.075 212.218 155.075C215.135 155.075 217.687 156.611 219.146 158.901C220.629 157.869 222.188 156.887 223.873 156.019C222.981 154.836 222.44 153.377 222.44 151.779C222.44 147.84 225.633 144.644 229.581 144.644C233.516 144.644 236.723 147.84 236.723 151.779C236.723 151.98 236.66 152.37 236.66 152.37L242.141 152.634Z" fill="#D7B46A"/>
<path d="M331.463 152.242C331.463 152.242 331.4 151.852 331.4 151.651C331.4 147.712 334.606 144.516 338.541 144.516C342.489 144.516 345.683 147.712 345.683 151.651C345.683 153.249 345.142 154.708 344.249 155.904C345.934 156.772 347.493 157.741 348.977 158.773C350.435 156.483 352.988 154.96 355.904 154.96C360.443 154.96 364.114 158.634 364.114 163.164C364.114 166.02 362.668 168.524 360.456 169.997C361.625 171.557 362.618 173.017 363.435 174.325C364.68 173.658 366.076 173.243 367.584 173.243C372.5 173.243 376.486 177.232 376.486 182.139C376.486 186.38 373.506 189.916 369.533 190.809C369.734 192.029 369.885 193.288 369.998 194.559C370.275 194.533 370.539 194.483 370.828 194.483C376.021 194.483 380.233 198.686 380.233 203.87C380.233 209.054 376.021 213.257 370.828 213.257C370.237 213.257 369.671 213.194 369.118 213.093C368.854 214.641 368.578 216.201 368.226 217.812C372.551 219.284 375.656 223.374 375.656 228.193C375.656 234.258 370.74 239.178 364.668 239.178C358.595 239.178 353.666 234.258 353.666 228.193C353.666 222.128 358.595 217.208 364.668 217.208C364.906 217.208 365.133 217.233 365.372 217.246C365.749 215.484 366.063 213.76 366.34 212.074C363.423 210.476 361.436 207.418 361.436 203.87C361.436 199.994 363.775 196.685 367.119 195.238C367.006 193.766 366.83 192.331 366.604 190.935C362.153 190.444 358.683 186.719 358.683 182.139C358.683 179.811 359.601 177.697 361.072 176.112C360.167 174.665 359.01 172.979 357.614 171.192C357.627 171.192 357.627 171.192 357.639 171.192C357.074 171.318 356.495 171.381 355.904 171.381C351.366 171.381 347.682 167.707 347.682 163.164C347.682 162.636 347.745 162.12 347.845 161.616C345.985 160.27 343.985 159.012 341.81 157.967C340.817 158.471 339.723 158.798 338.541 158.798C335.889 158.798 333.588 157.326 332.356 155.161C330.646 155.136 328.068 155.187 325.566 155.463C324.548 158.156 321.971 160.094 318.915 160.094C314.968 160.094 311.774 156.898 311.774 152.959C311.774 149.008 314.968 145.825 318.915 145.825C322.687 145.825 325.717 148.807 325.981 152.506L331.463 152.242Z" fill="#D7B46A"/>
<path d="M344.128 238.533C355.167 220.54 355.808 207.718 355.808 207.718C356.939 181.62 340.23 171.076 340.23 171.076C321.095 155.989 300.802 166.37 300.802 166.37C281.981 149.182 267.057 167.188 267.057 167.188C264.379 166.106 261.601 165.25 258.772 164.684C249.669 162.834 240.101 164.092 232.281 169.277C223.178 175.304 216.628 185.861 214.503 196.468C212.554 206.27 214.076 216.5 217.244 225.875C217.521 226.693 222.235 239.313 223.09 239.024C223.09 239.024 209.952 243.566 211.41 256.527C211.41 256.527 213.359 273.073 230.873 270.154C235.387 269.449 240.001 269.147 244.527 268.72C254.774 267.751 265.033 266.971 275.317 266.53C280.799 266.304 286.256 266.291 291.712 266.417C298.577 266.581 305.429 266.958 312.294 267.449C319.272 267.914 326.212 268.191 333.152 269.085C336.974 269.563 341.576 271.148 345.423 270.481C357.43 268.367 358.725 257.181 358.725 257.181C360.51 241.78 344.128 238.533 344.128 238.533ZM227.629 263.183L228.937 255.885L225.53 249.556L234.77 248.096L233.149 255.558L236.883 261.56L227.629 263.183ZM226.334 204.484C228.12 183.885 242.075 175.455 259.602 177.72C259.602 177.72 246.136 196.053 256.999 234.154L237.851 236.583C237.851 236.583 224.549 225.069 226.334 204.484ZM251.48 256.049L243.207 252.311L251.48 247.291L261.387 251.506L251.48 256.049ZM268.604 232.355C266.127 221.609 264.58 211.606 266.202 200.621C267.346 192.844 269.257 184.389 274.048 177.934C275.154 176.449 276.512 174.939 278.134 173.945C277.367 176.185 277.857 178.764 279.642 180.551C280.523 181.419 281.579 181.973 282.698 182.237C279.341 182.854 276.801 185.785 276.801 189.321C276.801 192.58 278.964 195.298 281.931 196.192C278.511 197.11 275.984 200.205 275.984 203.917C275.984 207.441 278.272 210.398 281.428 211.48C276.487 212.386 272.74 216.714 272.74 221.911C272.74 227.322 276.788 231.776 282.019 232.443L268.604 232.355ZM283.615 255.231L275.493 250.047L284.42 245.668L293.347 250.688L283.615 255.231ZM297.722 232.531L284.609 232.456C289.889 231.839 293.988 227.359 293.988 221.911C293.988 216.979 290.618 212.839 286.055 211.643C289.499 210.737 292.052 207.642 292.052 203.917C292.052 200.205 289.512 197.11 286.092 196.192C289.059 195.298 291.234 192.58 291.234 189.321C291.234 185.861 288.795 182.967 285.539 182.275C286.696 182.023 287.802 181.457 288.707 180.551C291.209 178.047 291.209 173.995 288.707 171.491C296.238 176.94 300.651 185.509 302.273 200.105C303.895 214.701 297.722 232.531 297.722 232.531V232.531ZM317.361 256.212L307.78 251.179L317.361 246.158L326.765 251.833L317.361 256.212ZM330.172 236.419L309.088 233.349C320.114 194.43 308.597 178.047 308.597 178.047C316.707 173.504 327.255 177.242 327.255 177.242C338.935 182.917 343.638 194.757 342.669 209.831C341.689 224.906 330.172 236.419 330.172 236.419V236.419ZM342.343 253.771L343.638 261.724L334.874 260.1L337.967 253.771L336.345 246.473L346.077 248.26L342.343 253.771Z" fill="#D7B46A"/>
<path d="M306.809 131.348H288.29L282.557 113.103L276.71 131.348H257.248L273.115 142.572L267.381 160.452L282.569 149.254L297.154 159.559L291.772 142.446L306.809 131.348ZM296.588 134.594L290.741 139.149L289.296 134.557L296.588 134.594ZM282.796 123.245L285.398 131.348H280.193L282.796 123.245ZM267.469 134.431L275.705 134.481L274.196 139.175L267.469 134.431ZM273.555 152.022L275.943 144.573L279.854 147.479L273.555 152.022ZM277.037 141.175L279.187 134.494L286.429 134.532L288.478 140.924L282.884 145.29L277.037 141.175ZM292.049 152.022L285.423 147.165L289.509 144.12L292.049 152.022Z" fill="#D7B46A"/>
<path d="M281.013 0.00124627C125.815 0.00124627 0 171.922 0 383.982C0 596.055 125.815 767.976 281.013 767.976C436.21 767.976 562.025 596.055 562.025 383.982C562.025 171.922 436.21 0.00124627 281.013 0.00124627ZM281.402 754.978C132.567 754.978 11.9064 588.883 11.9064 383.982C11.9064 179.094 132.567 12.9994 281.402 12.9994C430.251 12.9994 550.911 179.094 550.911 383.982C550.911 588.883 430.251 754.978 281.402 754.978Z" fill="#D7B46A"/>
<path d="M226.335 204.48C228.121 183.882 242.076 175.451 259.59 177.729C259.59 177.729 246.125 196.049 257 234.15L237.852 236.592C237.852 236.592 224.55 225.078 226.335 204.48Z" fill="#C90C0F"/>
<path d="M330.173 236.426L309.076 233.343C320.115 194.424 308.598 178.054 308.598 178.054C316.708 173.511 327.256 177.236 327.256 177.236C338.936 182.911 343.639 194.751 342.67 209.825C341.69 224.912 330.173 236.426 330.173 236.426Z" fill="#C90C0F"/>
</g>
<defs>
<clipPath id="clip0_23_753">
<rect width="562" height="768" fill="white"/>
</clipPath>
</defs>
</svg>
